# xmcd
#
# Track frame offsets:
#	150
#	16274
#	36300
#	52093
#	71068
#	84718
#	98870
#	117021
#	136695
#	152369
#	169843
#	184394
#	203725
#	222884
#	242662
#
# Disc length: 3474 seconds
#
# Revision: 1
# Processed by: cddbd v1.5.2PL0 Copyright (c) Steve Scherf et al.
# Submitted via: audiograbber 1.83.01
#
DISCID=cc0d900f
DTITLE=Chartbuster Karaoke - CBCDG-60004
DYEAR=1900
DGENRE=
TTITLE0=Brooks and Dunn  - My Maria
TTITLE1=Wynonna - My Angel Is Here
TTITLE2=John Berry  - Change My Mind
TTITLE3=Faith Hill  - I Can't Do That Anymore
TTITLE4=LeAnn Rimes  - Blue
TTITLE5=Joe Diffie  - Whole Lotta Gone
TTITLE6=Faith Hill - You Can't Lose Me
TTITLE7=Vince Gill  - Worlds Apart
TTITLE8=George Strait - Carried Away
TTITLE9=Collin Raye - Love Remains
TTITLE10=Tim McGraw  - She Never Let's It Go To Her Heart
TTITLE11=Shania Twain  - Home Ain't Where The Heart Is Anymore
TTITLE12=Ty Herndon - Living In A Moment
TTITLE13=George Strait  - I Can Still Make Cheyenne
TTITLE14=David Lee Murphy  - The Road you Leave Behind
EXTD=
EXTT0=
EXTT1=
EXTT2=
EXTT3=
EXTT4=
EXTT5=
EXTT6=
EXTT7=
EXTT8=
EXTT9=
EXTT10=
EXTT11=
EXTT12=
EXTT13=
EXTT14=
PLAYORDER=
